<?xml version="1.0" encoding="UTF-8"?>
<svg width="44px" height="44px" viewBox="0 0 44 44" version="1.1" xmlns="http://www.w3.org/2000/svg" xmlns:xlink="http://www.w3.org/1999/xlink">
	<!-- Generator: Sketch 57.1 (83088) - https://sketch.com -->
	<title>
		Hello world!
	</title>
	<g id="Page-1" stroke="none" stroke-width="1" fill="none" fill-rule="evenodd">
		<path transform="translate(0 0)" d="M6.25,36 L6.25,6.85546875 L12.1914062,6.85546875 L12.1914062,18.8085938 L17.3242188,18.8085938 L17.3242188,6.85546875 L23.265625,6.85546875 L23.265625,36 L17.3242188,36 L17.3242188,23.0449219 L12.1914062,23.0449219 L12.1914062,36 L6.25,36 Z M33.3715788,23.2910156 L36.5532194,23.2910156 L36.5532194,21.2519531 C36.5532194,20.3613237 36.4213848,19.7226582 36.1577116,19.3359375 C35.8940384,18.9492168 35.4809566,18.7558594 34.9184538,18.7558594 C34.3559509,18.7558594 33.9575174,18.9755837 33.7231413,19.4150391 C33.4887651,19.8544944 33.3715788,20.6249945 33.3715788,21.7265625 L33.3715788,23.2910156 Z M34.95361,36.3515625 C32.6215671,36.3515625 30.8754908,35.7158267 29.7153288,34.4443359 C28.5551667,33.1728452 27.9750944,31.3476681 27.9750944,28.96875 L27.9750944,22.2363281 C27.9750944,19.85741 28.561026,18.0322329 29.7329069,16.7607422 C30.9047877,15.4892515 32.6391454,14.8535156 34.9360319,14.8535156 C37.2915124,14.8535156 38.9995031,15.4892515 40.0600553,16.7607422 C41.1206075,18.0322329 41.6508756,19.9218625 41.6508756,22.4296875 L41.6508756,25.9101562 L33.3715788,25.9101562 L33.3715788,29.3203125 C33.3715788,30.3515677 33.4770464,31.1279271 33.687985,31.6494141 C33.8989236,32.170901 34.314935,32.4316406 34.9360319,32.4316406 C36.0141623,32.4316406 36.5532194,31.6523515 36.5532194,30.09375 L36.5532194,28.1601562 L41.6332975,28.1601562 L41.6332975,29.8476562 C41.6332975,31.9570418 41.0590845,33.5683538 39.9106413,34.6816406 C38.762198,35.7949274 37.1098708,36.3515625 34.95361,36.3515625 Z M46.1669856,36 L46.1669856,6.85546875 L51.6162044,6.85546875 L51.6162044,36 L46.1669856,36 Z M56.6948144,36 L56.6948144,6.85546875 L62.1440331,6.85546875 L62.1440331,36 L56.6948144,36 Z M73.5156119,36.3515625 C71.2656006,36.3515625 69.5429616,35.7451233 68.3476431,34.5322266 C67.1523246,33.3193299 66.5546744,31.5761832 66.5546744,29.3027344 L66.5546744,21.8847656 C66.5546744,19.6230356 67.1523246,17.8857483 68.3476431,16.6728516 C69.5429616,15.4599549 71.2656006,14.8535156 73.5156119,14.8535156 C75.7773419,14.8535156 77.5146292,15.4599549 78.7275259,16.6728516 C79.9404226,17.8857483 80.5468619,19.6230356 80.5468619,21.8847656 L80.5468619,29.3027344 C80.5468619,31.5644644 79.9404226,33.3046814 78.7275259,34.5234375 C77.5146292,35.7421936 75.7773419,36.3515625 73.5156119,36.3515625 Z M73.53319,32.625 C74.1777245,32.625 74.6113139,32.3759791 74.8339712,31.8779297 C75.0566286,31.3798803 75.1679556,30.6503954 75.1679556,29.6894531 L75.1679556,21.515625 C75.1679556,20.5429639 75.0566286,19.8076197 74.8339712,19.3095703 C74.6113139,18.8115209 74.1777245,18.5625 73.53319,18.5625 C72.9003743,18.5625 72.4755739,18.8173803 72.2587759,19.3271484 C72.041978,19.8369166 71.9335806,20.5664015 71.9335806,21.515625 L71.9335806,29.6894531 C71.9335806,30.6386766 72.041978,31.3652319 72.2587759,31.8691406 C72.4755739,32.3730494 72.9003743,32.625 73.53319,32.625 Z M96.9970506,36 L93.8857225,15.1875 L98.4033006,15.1875 L100.038066,27.7558594 L101.936504,15.1875 L105.891582,15.1875 L107.614238,27.9316406 L109.442363,15.1875 L113.713847,15.1875 L110.479472,36 L105.856426,36 L103.834941,23.7304688 L101.672832,36 L96.9970506,36 Z M123.942848,36.3515625 C121.692837,36.3515625 119.970198,35.7451233 118.774879,34.5322266 C117.579561,33.3193299 116.981911,31.5761832 116.981911,29.3027344 L116.981911,21.8847656 C116.981911,19.6230356 117.579561,17.8857483 118.774879,16.6728516 C119.970198,15.4599549 121.692837,14.8535156 123.942848,14.8535156 C126.204578,14.8535156 127.941865,15.4599549 129.154762,16.6728516 C130.367659,17.8857483 130.974098,19.6230356 130.974098,21.8847656 L130.974098,29.3027344 C130.974098,31.5644644 130.367659,33.3046814 129.154762,34.5234375 C127.941865,35.7421936 126.204578,36.3515625 123.942848,36.3515625 Z M123.960426,32.625 C124.604961,32.625 125.03855,32.3759791 125.261208,31.8779297 C125.483865,31.3798803 125.595192,30.6503954 125.595192,29.6894531 L125.595192,21.515625 C125.595192,20.5429639 125.483865,19.8076197 125.261208,19.3095703 C125.03855,18.8115209 124.604961,18.5625 123.960426,18.5625 C123.327611,18.5625 122.90281,18.8173803 122.686012,19.3271484 C122.469214,19.8369166 122.360817,20.5664015 122.360817,21.515625 L122.360817,29.6894531 C122.360817,30.6386766 122.469214,31.3652319 122.686012,31.8691406 C122.90281,32.3730494 123.327611,32.625 123.960426,32.625 Z M135.367161,36 L135.367161,15.1875 L140.798802,15.1875 L140.798802,18.5273438 C142.087871,16.124988 143.505825,14.9238281 145.052708,14.9238281 C145.298803,14.9238281 145.562472,14.9648433 145.843724,15.046875 L145.843724,20.0917969 C145.445284,19.9511712 145.017554,19.8808594 144.560521,19.8808594 C143.77536,19.9160158 143.086891,20.1181622 142.495091,20.4873047 C141.903291,20.8564472 141.337867,21.4394491 140.798802,22.2363281 L140.798802,36 L135.367161,36 Z M149.533662,36 L149.533662,6.85546875 L154.982881,6.85546875 L154.982881,36 L149.533662,36 Z M166.582975,32.6953125 C167.063446,32.6953125 167.625941,32.519533 168.270475,32.1679688 L168.270475,18.9667969 C167.684535,18.6152326 167.12204,18.4394531 166.582975,18.4394531 C165.997035,18.4394531 165.572234,18.6884741 165.308561,19.1865234 C165.044888,19.6845728 164.913053,20.3261679 164.913053,21.1113281 L164.913053,29.7597656 C164.913053,31.7168067 165.469688,32.6953125 166.582975,32.6953125 Z M164.420866,36.3515625 C161.116162,36.3515625 159.463834,34.0312732 159.463834,29.390625 L159.463834,22.0253906 C159.463834,20.6308524 159.622036,19.4121146 159.938444,18.3691406 C160.254852,17.3261667 160.790979,16.4794954 161.546842,15.8291016 C162.302705,15.1787077 163.248985,14.8535156 164.385709,14.8535156 C165.75681,14.8535156 167.051719,15.3925727 168.270475,16.4707031 L168.270475,6.85546875 L173.702116,6.85546875 L173.702116,36 L168.270475,36 L168.270475,34.4882812 C167.04,35.7187562 165.75681,36.3398437 164.420866,36.3515625 Z M179.888148,28.8984375 L178.288538,6.90820312 L183.702601,6.90820312 L181.786585,28.8984375 L179.888148,28.8984375 Z M178.218226,36 L178.218226,30.8496094 L183.403773,30.8496094 L183.403773,36 L178.218226,36 Z" id="Helloworld!" fill="#94979C" fill-rule="nonzero">
			<animateTransform attributeName="transform" type="translate" from="50" to="-200" dur="3s" repeatCount="indefinite" />
		</path>
	</g>
</svg>
